<svg width="45" height="46" viewBox="0 0 45 46" fill="none" xmlns="http://www.w3.org/2000/svg">
<circle cx="22.5" cy="23" r="22.5" fill="black"/>
<path d="M12.5 33.5C11.8125 33.5 11.2238 33.255 10.7338 32.765C10.2438 32.275 9.99917 31.6867 10 31V16C10 15.3125 10.245 14.7238 10.735 14.2338C11.225 13.7438 11.8133 13.4992 12.5 13.5H32.5C33.1875 13.5 33.7762 13.745 34.2662 14.235C34.7562 14.725 35.0008 15.3133 35 16V31C35 31.6875 34.755 32.2762 34.265 32.7662C33.775 33.2562 33.1867 33.5008 32.5 33.5H12.5ZM22.5 24.75L12.5 18.5V31H32.5V18.5L22.5 24.75ZM22.5 22.25L32.5 16H12.5L22.5 22.25ZM12.5 18.5V16V31V18.5Z" fill="white"/>
</svg>
