<svg width="70" height="70" viewBox="0 0 70 70" fill="none" xmlns="http://www.w3.org/2000/svg">
<circle cx="35" cy="35" r="35" fill="black"/>
<path d="M46.6221 36.4827C46.0399 35.3425 44.3973 34.3824 42.214 36.0026C39.2407 38.2829 34.5 38.2829 34.5 38.2829C34.5 38.2829 29.7593 38.2829 26.786 36.0026C24.6027 34.3824 22.9601 35.3425 22.3779 36.4827C21.3383 38.4829 22.5027 39.4631 25.1434 41.0833C27.4097 42.4834 30.5078 43.0035 32.5039 43.2035L30.8405 44.8037C28.4702 47.064 26.183 49.2443 24.6235 50.7645C23.6879 51.6846 23.6879 53.1448 24.6235 54.0049L24.9146 54.3249C25.8503 55.225 27.3889 55.225 28.3246 54.3249L34.5 48.3642C36.8911 50.6245 39.1575 52.8047 40.7378 54.3249C41.6734 55.225 43.1913 55.225 44.1477 54.3249L44.418 54.0049C45.3745 53.1448 45.3745 51.6846 44.418 50.7645L38.2219 44.8037L36.5793 43.1835C38.5545 43.0035 41.611 42.4634 43.8566 41.0833C46.4973 39.4631 47.6617 38.4829 46.6221 36.4827ZM34.5 20.1406C37.3694 20.1406 39.6981 22.3809 39.6981 25.1213C39.6981 27.8816 37.3694 30.1019 34.5 30.1019C31.6306 30.1019 29.3019 27.8816 29.3019 25.1213C29.3019 22.3809 31.6306 20.1406 34.5 20.1406ZM34.5 35.2425C40.3219 35.2425 45.021 30.722 45.021 25.1213C45.021 22.4369 43.9126 19.8626 41.9395 17.9645C39.9664 16.0663 37.2903 15 34.5 15C31.7097 15 29.0336 16.0663 27.0605 17.9645C25.0874 19.8626 23.979 22.4369 23.979 25.1213C23.979 30.722 28.6781 35.2425 34.5 35.2425Z" fill="white"/>
</svg>
