<svg width="70" height="70" viewBox="0 0 70 70" fill="none" xmlns="http://www.w3.org/2000/svg">
<rect width="70" height="70" rx="35" fill="black"/>
<g clip-path="url(#clip0_71_17)">
<path fill-rule="evenodd" clip-rule="evenodd" d="M53.5051 40.745C53.5051 40.745 57.5476 44.7375 58.5476 46.585C58.5671 46.6117 58.5823 46.6412 58.5926 46.6725C59.0001 47.355 59.1001 47.89 58.9001 48.285C58.5626 48.9375 57.4201 49.265 57.0326 49.2925H49.8876C49.3901 49.2925 48.3551 49.1625 47.0951 48.2925C46.1326 47.62 45.1751 46.5125 44.2476 45.43C42.8626 43.8225 41.6651 42.4275 40.4526 42.4275C40.2995 42.4272 40.1474 42.4525 40.0026 42.5025C39.0851 42.7925 37.9201 44.1 37.9201 47.5825C37.9201 48.6725 37.0601 49.2925 36.4576 49.2925H33.1851C32.0701 49.2925 26.2651 48.9025 21.1176 43.475C14.8101 36.83 9.14513 23.5 9.09013 23.3825C8.73763 22.52 9.47763 22.05 10.2776 22.05H17.4926C18.4601 22.05 18.7751 22.635 18.9951 23.16C19.2501 23.7625 20.1951 26.1725 21.7451 28.88C24.2551 33.285 25.7976 35.0775 27.0301 35.0775C27.2617 35.0782 27.4893 35.0178 27.6901 34.9025C29.3001 34.0175 29.0001 28.2675 28.9251 27.0825C28.9251 26.8525 28.9226 24.515 28.0976 23.385C27.5076 22.575 26.5026 22.26 25.8951 22.145C26.0576 21.91 26.4026 21.55 26.8451 21.3375C27.9476 20.7875 29.9401 20.7075 31.9176 20.7075H33.0151C35.1601 20.7375 35.7151 20.875 36.4951 21.0725C38.0651 21.4475 38.0951 22.465 37.9576 25.93C37.9176 26.92 37.8751 28.035 37.8751 29.3475C37.8751 29.6275 37.8626 29.94 37.8626 30.2575C37.8151 32.035 37.7526 34.0375 39.0076 34.86C39.1704 34.9614 39.3584 35.0151 39.5501 35.015C39.9851 35.015 41.2876 35.015 44.8201 28.9525C46.3701 26.275 47.5701 23.1175 47.6526 22.88C47.7226 22.7475 47.9326 22.375 48.1876 22.225C48.369 22.1285 48.5722 22.0803 48.7776 22.085H57.2651C58.1901 22.085 58.8176 22.225 58.9401 22.575C59.1451 23.1425 58.9001 24.875 55.0251 30.115C54.3726 30.9875 53.8001 31.7425 53.2976 32.4025C49.7851 37.0125 49.7851 37.245 53.5051 40.745Z" fill="white"/>
</g>
<defs>
<clipPath id="clip0_71_17">
<rect width="50" height="50" fill="white" transform="translate(9 10)"/>
</clipPath>
</defs>
</svg>
