<svg width="70" height="70" viewBox="0 0 70 70" fill="none" xmlns="http://www.w3.org/2000/svg">
<circle cx="35" cy="35" r="35" fill="black"/>
<path d="M49.6875 20.2291C47.7775 18.2998 45.5025 16.7701 42.9951 15.7292C40.4877 14.6884 37.7982 14.1572 35.0833 14.1666C23.7083 14.1666 14.4375 23.4375 14.4375 34.8125C14.4375 38.4583 15.3958 42 17.1875 45.125L14.2708 55.8333L25.2083 52.9583C28.2292 54.6041 31.625 55.4791 35.0833 55.4791C46.4583 55.4791 55.7292 46.2083 55.7292 34.8333C55.7292 29.3125 53.5833 24.125 49.6875 20.2291ZM35.0833 51.9791C32 51.9791 28.9792 51.1458 26.3333 49.5833L25.7083 49.2083L19.2083 50.9166L20.9375 44.5833L20.5208 43.9375C18.8078 41.202 17.8982 38.04 17.8958 34.8125C17.8958 25.3541 25.6042 17.6458 35.0625 17.6458C39.6458 17.6458 43.9583 19.4375 47.1875 22.6875C48.7864 24.2791 50.0535 26.1722 50.9154 28.2571C51.7773 30.342 52.2167 32.5773 52.2083 34.8333C52.25 44.2916 44.5417 51.9791 35.0833 51.9791ZM44.5 39.1458C43.9792 38.8958 41.4375 37.6458 40.9792 37.4583C40.5 37.2916 40.1667 37.2083 39.8125 37.7083C39.4583 38.2291 38.4792 39.3958 38.1875 39.7291C37.8958 40.0833 37.5833 40.125 37.0625 39.8541C36.5417 39.6041 34.875 39.0416 32.9167 37.2916C31.375 35.9166 30.3542 34.2291 30.0417 33.7083C29.75 33.1875 30 32.9166 30.2708 32.6458C30.5 32.4166 30.7917 32.0416 31.0417 31.75C31.2917 31.4583 31.3958 31.2291 31.5625 30.8958C31.7292 30.5416 31.6458 30.25 31.5208 30C31.3958 29.75 30.3542 27.2083 29.9375 26.1666C29.5208 25.1666 29.0833 25.2916 28.7708 25.2708H27.7708C27.4167 25.2708 26.875 25.3958 26.3958 25.9166C25.9375 26.4375 24.6042 27.6875 24.6042 30.2291C24.6042 32.7708 26.4583 35.2291 26.7083 35.5625C26.9583 35.9166 30.3542 41.125 35.5208 43.3541C36.75 43.8958 37.7083 44.2083 38.4583 44.4375C39.6875 44.8333 40.8125 44.7708 41.7083 44.6458C42.7083 44.5 44.7708 43.3958 45.1875 42.1875C45.625 40.9791 45.625 39.9583 45.4792 39.7291C45.3333 39.5 45.0208 39.3958 44.5 39.1458Z" fill="white"/>
</svg>
